<?xml version="1.0" standalone="no"?>
<!DOCTYPE svg PUBLIC "-//W3C//DTD SVG 20010904//EN"
 "http://www.w3.org/TR/2001/REC-SVG-20010904/DTD/svg10.dtd">
<svg version="1.0" xmlns="http://www.w3.org/2000/svg"
 width="335.000000pt" height="600.000000pt" viewBox="0 0 335.000000 600.000000"
 preserveAspectRatio="xMidYMid meet">
<g transform="translate(0.000000,600.000000) scale(0.100000,-0.100000)"
fill="#000000" stroke="none">
<path d="M685 5621 c-65 -16 -135 -66 -171 -122 -35 -56 -58 -152 -49 -213 8
-62 17 -79 71 -138 38 -41 44 -53 44 -92 0 -64 -14 -93 -76 -158 -60 -63 -91
-122 -100 -192 l-7 -46 266 0 265 0 -5 23 c-2 12 -20 54 -39 93 -19 40 -34 82
-34 95 0 43 27 114 41 110 46 -12 90 -12 104 -1 8 7 15 29 15 50 0 20 3 40 7
43 3 4 8 21 10 39 2 18 10 36 18 41 21 11 19 30 -11 90 -26 49 -26 54 -14 113
9 50 9 67 -1 86 -7 12 -13 41 -13 63 -1 33 -6 43 -35 62 -73 49 -203 74 -286
54z m207 -31 c76 -29 98 -47 97 -78 -1 -15 6 -46 14 -70 12 -31 14 -50 7 -68
-17 -43 -11 -92 15 -145 28 -54 26 -70 -5 -62 -21 5 -28 -11 -10 -22 17 -11
11 -35 -9 -35 -11 0 -23 -5 -27 -12 -5 -7 -1 -9 13 -6 19 5 20 2 16 -41 -8
-74 -23 -79 -141 -44 -61 19 -64 23 -113 192 -17 58 -35 115 -40 126 -17 39
-59 211 -59 242 0 29 3 33 38 38 20 4 42 8 47 11 19 7 108 -7 157 -26z m-223
-184 c20 -68 20 -69 1 -94 -11 -13 -20 -35 -20 -47 0 -34 31 -116 46 -122 8
-3 14 -14 14 -25 0 -45 29 -77 103 -109 58 -26 66 -59 15 -59 -56 0 -238 115
-238 150 0 9 -18 33 -40 54 -61 57 -73 86 -68 180 4 110 45 189 123 237 l30
19 7 -58 c4 -31 16 -88 27 -126z m31 -106 c0 -5 -4 -10 -10 -10 -13 0 -13 -77
1 -85 6 -4 13 -4 17 0 4 4 1 10 -5 12 -15 5 -18 63 -4 63 8 0 92 -241 86 -248
-1 -1 -14 10 -29 24 -15 16 -29 43 -32 65 -4 21 -10 36 -15 33 -21 -13 -53 93
-39 130 9 25 30 36 30 16z m-25 -294 c73 -51 107 -66 147 -66 25 0 29 -3 23
-17 -17 -41 -16 -55 9 -109 14 -31 26 -58 26 -61 0 -11 -183 95 -243 140 -49
37 -66 56 -61 67 4 8 9 34 12 57 3 29 8 41 16 36 6 -3 38 -25 71 -47z m5 -160
c36 -24 99 -60 140 -81 41 -21 76 -38 77 -39 1 0 4 -12 8 -26 6 -25 4 -26 -39
-25 -41 0 -46 2 -52 28 -7 32 -23 28 -17 -5 l4 -23 -143 1 c-79 1 -146 2 -150
3 -4 0 -2 15 3 33 10 37 3 52 -9 18 l-8 -23 -34 30 -33 29 18 35 c9 19 40 57
67 86 l51 51 26 -24 c14 -14 55 -45 91 -68z m-190 -163 c0 -9 -12 -12 -35 -10
-33 2 -35 4 -35 40 l0 38 35 -28 c19 -15 35 -34 35 -40z" data-level="C5"/>
<path d="M943 5368 c-13 -6 -23 -15 -23 -20 0 -11 17 -10 25 2 3 6 15 10 25
10 10 0 22 5 25 10 8 13 -24 12 -52 -2z"/>
<path d="M957 5333 c-23 -12 -26 -17 -16 -29 16 -20 24 -18 38 12 15 34 12 36
-22 17z"/>
<path d="M1005 5190 c3 -5 8 -10 11 -10 2 0 4 5 4 10 0 6 -5 10 -11 10 -5 0
-7 -4 -4 -10z"/>
<path d="M538 5253 c5 -29 20 -39 35 -24 8 8 6 11 -6 11 -9 0 -17 5 -17 11 0
6 7 9 15 5 8 -3 15 -2 15 3 0 5 -10 11 -23 13 -20 4 -23 1 -19 -19z"/>
<path d="M599 5261 c9 -6 10 -11 2 -15 -17 -11 -13 -26 7 -26 13 0 14 2 3 9
-9 6 -10 11 -2 15 17 11 13 26 -6 26 -14 0 -15 -2 -4 -9z"/>
<path d="M563 5194 c-7 -19 2 -28 22 -21 19 8 19 23 0 31 -9 3 -18 -1 -22 -10z"/>
<path d="M626 5128 c3 -5 10 -6 15 -3 13 9 11 12 -6 12 -8 0 -12 -4 -9 -9z"/>
<path d="M663 4924 c-7 -18 5 -34 25 -33 11 0 12 3 5 6 -22 8 -14 28 11 28 24
0 30 -14 11 -27 -6 -4 -2 -8 8 -8 11 0 17 8 17 24 0 21 -5 24 -36 24 -20 0
-38 -6 -41 -14z"/>
<path d="M767 4894 c-14 -14 -7 -35 11 -32 9 2 17 10 17 17 0 16 -18 25 -28
15z"/>
<path d="M607 4804 c-14 -14 -7 -35 11 -32 9 2 17 10 17 17 0 16 -18 25 -28
15z"/>
<path d="M525 4779 c-4 -6 -5 -12 -2 -15 2 -3 7 2 10 11 7 17 1 20 -8 4z"/>
<path d="M542 4718 c2 -19 9 -23 40 -23 33 0 38 3 38 23 0 12 -5 22 -11 22 -6
0 -9 -6 -6 -13 3 -8 0 -14 -6 -14 -7 0 -20 -4 -29 -8 -13 -5 -18 -2 -18 10 0
11 5 15 15 11 8 -3 15 -1 15 4 0 6 -9 10 -21 10 -15 0 -20 -5 -17 -22z"/>
<path d="M1596 5619 c-102 -25 -157 -96 -159 -207 -2 -51 -6 -70 -19 -80 -11
-8 -18 -26 -18 -48 0 -46 45 -134 68 -134 26 0 66 -135 57 -190 -9 -53 -42
-79 -175 -137 -58 -25 -109 -49 -114 -54 -6 -5 -17 -9 -25 -9 -37 0 -94 -23
-126 -51 -42 -37 -74 -102 -92 -188 -7 -36 -32 -102 -54 -146 -24 -48 -45
-112 -54 -160 -33 -171 -43 -199 -104 -299 -74 -122 -118 -250 -157 -462 -5
-23 -14 -34 -38 -42 -20 -7 -46 -31 -67 -60 -18 -26 -60 -73 -93 -104 -51 -49
-58 -59 -46 -72 14 -18 55 -21 65 -6 3 6 11 10 16 10 6 0 -8 -34 -30 -75 -45
-81 -48 -96 -26 -115 13 -11 21 -7 50 24 l34 36 -21 -49 c-42 -102 19 -110 83
-11 l16 25 -5 -33 c-5 -37 16 -51 51 -34 12 6 31 13 42 16 11 3 26 21 33 38
25 63 59 184 72 253 6 39 15 75 18 81 4 6 48 73 99 148 94 141 122 198 143
299 6 33 20 73 30 90 9 18 34 82 54 142 60 183 92 262 99 240 25 -87 61 -231
82 -340 29 -145 29 -163 -10 -368 -36 -186 -48 -386 -35 -591 15 -242 30 -341
100 -646 45 -193 47 -274 16 -522 -18 -137 -24 -226 -20 -260 4 -29 31 -125
60 -213 60 -182 84 -307 84 -445 l0 -96 -47 -45 c-27 -25 -69 -62 -95 -83 -70
-55 -64 -96 21 -128 43 -17 44 -17 100 8 31 14 75 42 97 62 23 21 57 46 75 57
l34 21 -2 114 c0 63 -7 163 -14 222 -10 87 -10 144 1 313 11 166 11 233 1 343
-9 100 -9 163 -2 232 18 160 24 409 13 524 -8 76 -7 137 0 200 29 251 50 64
38 -329 -2 -60 2 -210 10 -331 10 -172 11 -245 2 -325 -9 -84 -8 -142 5 -304
14 -172 14 -214 2 -300 -7 -55 -13 -138 -14 -185 -1 -47 -5 -100 -9 -118 -7
-29 -4 -37 29 -67 20 -19 42 -35 49 -35 6 0 30 -18 51 -40 21 -22 44 -40 50
-40 6 0 27 -9 47 -20 34 -18 40 -18 79 -4 111 38 107 79 -16 168 -22 16 -52
43 -67 60 -26 30 -27 35 -28 144 0 142 24 267 86 440 59 165 64 234 35 469
-35 272 -32 322 34 598 99 414 113 845 40 1185 -32 151 -31 219 8 390 48 211
71 300 78 300 3 0 12 -21 21 -47 76 -225 110 -322 124 -346 9 -16 27 -72 40
-124 13 -52 35 -116 50 -141 37 -64 142 -221 171 -255 13 -17 23 -42 23 -60 0
-43 56 -250 81 -299 11 -21 26 -39 34 -39 28 -3 33 -4 41 -11 4 -5 16 -8 26
-8 14 0 18 8 19 38 0 32 2 35 12 18 67 -106 128 -98 82 10 -8 20 -12 40 -10
45 7 10 -195 303 -202 295 -3 -3 31 -57 76 -120 69 -99 141 -239 141 -276 0
-24 -32 -6 -61 33 -52 69 -175 349 -163 368 3 5 -8 28 -24 51 -67 98 -187 358
-251 546 -45 129 -50 170 -13 109 41 -71 124 -165 186 -212 61 -46 64 -51 89
-129 14 -44 35 -123 47 -174 28 -124 34 -138 64 -146 14 -3 50 -37 85 -80 33
-41 74 -85 91 -99 35 -30 36 -33 13 -41 -9 -4 -32 4 -55 19 -21 14 -38 22 -38
19 0 -4 20 -47 45 -96 25 -49 45 -96 45 -104 0 -23 -22 -16 -47 14 -12 15 -22
22 -23 16 0 -5 13 -23 29 -38 26 -25 30 -26 44 -11 19 18 13 40 -34 121 -16
28 -29 54 -29 57 0 3 13 0 29 -6 66 -25 82 23 23 70 -21 17 -60 60 -88 96 -31
42 -60 70 -80 77 -30 10 -32 14 -71 175 -25 99 -56 196 -77 241 -20 42 -33 80
-30 85 3 5 0 8 -6 7 -23 -6 -79 105 -95 187 -8 44 -20 105 -26 135 -6 30 -29
90 -50 133 -22 42 -46 109 -54 147 -30 143 -88 216 -187 234 -33 6 -154 58
-274 117 -75 37 -89 96 -51 223 11 38 20 52 39 58 18 6 33 24 47 58 26 61 27
94 1 120 -15 15 -20 33 -20 75 0 92 -37 158 -112 196 -45 23 -165 33 -222 18z
m186 -19 c85 -24 137 -102 138 -205 0 -49 4 -64 21 -78 16 -14 19 -25 13 -50
-13 -61 -37 -98 -66 -104 -22 -4 -28 -11 -28 -32 -1 -39 -35 -107 -63 -126
-14 -9 -50 -19 -80 -22 -131 -13 -183 24 -211 150 -4 15 -12 27 -19 27 -17 0
-50 37 -65 73 -17 40 -15 74 7 89 15 10 19 29 22 89 5 94 31 138 103 174 55
28 158 34 228 15z m-103 -634 c48 -1 78 5 109 21 l43 21 -3 -36 c-3 -32 -9
-40 -48 -60 -38 -20 -55 -23 -113 -18 -87 6 -127 32 -127 81 l0 34 37 -21 c27
-16 53 -22 102 -22z m9 -86 c52 0 74 5 108 25 39 23 43 24 48 7 8 -23 74 -66
137 -88 27 -10 49 -21 49 -25 0 -10 -85 -45 -160 -65 -89 -25 -281 -25 -369
-1 -93 26 -172 57 -167 66 3 4 37 20 76 35 47 19 79 39 96 60 l26 32 46 -23
c33 -17 62 -23 110 -23z m-336 -111 c22 -11 84 -32 137 -45 178 -45 371 -27
535 51 32 15 36 15 75 -4 22 -12 62 -26 88 -31 67 -15 80 -24 63 -45 -16 -19
-158 -114 -220 -146 -44 -24 -49 -24 -340 -24 l-295 0 -66 32 c-36 18 -100 58
-143 88 -91 65 -114 69 -29 4 32 -23 62 -46 67 -50 5 -4 -12 -43 -36 -86 -43
-73 -101 -201 -144 -318 -40 -108 -210 -325 -286 -366 -18 -10 -17 -5 8 38 15
26 37 61 48 78 39 55 47 79 72 209 19 100 35 152 69 221 23 50 46 110 50 135
11 65 32 119 61 158 30 39 80 72 109 72 11 0 45 11 75 24 30 13 56 24 58 25 1
0 21 -8 44 -20z m958 -115 c16 -26 37 -80 46 -123 9 -42 35 -111 56 -154 30
-59 47 -112 68 -219 27 -129 34 -149 81 -227 68 -112 66 -108 43 -91 -143 109
-220 222 -328 485 -25 61 -66 146 -91 190 -26 45 -41 81 -35 83 6 2 36 26 68
53 31 26 58 48 60 49 1 0 16 -21 32 -46z m-1017 -98 c71 -41 112 -46 389 -47
280 -1 312 2 393 48 47 26 48 26 62 7 33 -44 89 -153 133 -260 50 -119 51
-131 22 -206 -15 -38 -30 -43 -38 -12 -4 14 -22 64 -40 112 -38 97 -40 106
-19 146 21 39 19 49 -9 42 -13 -3 -54 5 -96 19 -140 48 -213 58 -405 58 -193
1 -273 -11 -408 -59 -41 -14 -78 -22 -93 -18 -20 5 -24 2 -24 -16 0 -17 4 -21
18 -15 59 25 207 69 270 81 86 16 357 19 449 4 87 -14 276 -75 281 -90 3 -9
-1 -11 -12 -7 -45 18 -218 28 -466 29 -274 0 -369 -4 -467 -23 -49 -10 -51
-11 -51 -42 1 -18 -17 -81 -39 -142 l-41 -109 -20 34 c-39 63 -37 79 19 211
49 115 134 279 145 279 3 0 24 -11 47 -24z m729 -206 c162 -16 170 -22 68 -54
-260 -79 -584 -76 -844 10 -65 22 -46 32 76 43 136 12 576 13 700 1z m-736
-70 c234 -81 648 -69 868 25 16 7 17 5 8 -12 -6 -11 -57 -43 -114 -71 -212
-107 -396 -124 -599 -57 -83 28 -240 113 -247 135 -4 10 0 11 14 5 11 -4 42
-16 70 -25z m174 -131 c111 -37 252 -50 341 -29 83 18 179 50 232 77 26 13 53
21 59 17 6 -4 8 -3 5 3 -7 11 41 49 50 40 18 -19 -88 -108 -192 -160 -163 -82
-375 -82 -541 -2 -77 38 -194 126 -194 146 0 16 11 12 73 -21 39 -21 115 -53
167 -71z m-172 -18 c-11 -14 -11 -14 3 -3 14 10 27 6 85 -28 99 -57 211 -83
333 -78 133 6 222 36 338 114 l91 62 -14 -40 c-8 -22 -14 -48 -14 -57 0 -20
-78 -72 -174 -116 -189 -88 -335 -86 -518 6 -141 71 -154 82 -171 149 l-15 59
34 -26 c29 -22 32 -28 22 -42z m1052 -7 c0 -14 4 -23 9 -20 4 3 6 -5 4 -18
-10 -50 102 -341 218 -567 47 -91 58 -139 41 -167 -6 -8 -25 12 -61 63 -46 66
-51 78 -39 93 11 15 11 16 -3 4 -14 -11 -21 -6 -47 35 -51 80 -79 144 -96 222
-9 40 -27 94 -40 120 -13 25 -31 70 -40 98 -17 52 -17 53 3 82 12 16 24 43 27
60 7 35 24 32 24 -5z m-1290 7 c0 -10 11 -35 25 -55 19 -28 23 -41 15 -60 -7
-19 -14 -23 -30 -19 -18 5 -21 2 -18 -13 2 -11 11 -18 21 -16 15 3 15 -2 -4
-45 -11 -26 -24 -52 -29 -58 -5 -6 -19 -51 -30 -101 -23 -100 -48 -148 -161
-314 -65 -96 -80 -125 -89 -176 -13 -75 -56 -228 -77 -271 -16 -34 -52 -48
-38 -15 7 16 45 134 45 140 0 1 -4 2 -8 2 -5 0 -14 -24 -21 -52 -16 -62 -47
-128 -61 -128 -23 0 -9 83 26 152 38 76 97 223 108 272 6 25 5 28 -7 18 -8 -7
-15 -22 -15 -35 0 -12 -21 -71 -46 -132 -72 -169 -142 -285 -173 -285 -38 0
19 128 121 274 81 115 104 152 89 143 -5 -3 -54 -69 -108 -146 -121 -174 -160
-220 -174 -206 -7 8 4 40 39 108 27 53 47 97 44 97 -3 0 -23 -10 -44 -22 -32
-19 -41 -21 -52 -10 -11 11 -6 19 23 47 20 18 60 62 89 97 30 36 65 68 84 74
34 13 33 8 81 214 38 162 46 177 122 235 62 46 141 136 191 215 77 123 -65
-266 -185 -505 -56 -112 -69 -147 -66 -173 3 -18 9 -35 14 -38 6 -3 7 11 3 33
-5 33 3 55 59 168 81 163 87 178 135 300 46 115 82 239 82 278 0 15 5 27 10
27 6 0 10 -8 10 -19z m398 -171 c98 -41 146 -52 238 -51 102 0 229 39 336 105
40 24 74 43 75 42 1 -1 -3 -21 -9 -45 -10 -39 -19 -49 -84 -91 -105 -69 -193
-102 -288 -108 -126 -8 -202 16 -358 111 -59 36 -68 46 -77 83 -6 24 -11 45
-11 48 0 3 25 -10 56 -30 30 -19 85 -48 122 -64z m-102 -47 c55 -41 199 -102
272 -115 130 -22 255 17 434 136 l28 18 -11 -33 c-13 -40 -106 -131 -181 -176
-55 -33 -150 -63 -202 -63 -37 0 -158 29 -170 41 -6 6 -3 9 7 9 19 0 23 25 6
35 -6 4 -13 -2 -16 -14 -3 -12 -7 -21 -10 -21 -9 0 -98 65 -135 98 -21 19 -41
32 -44 29 -6 -5 47 -56 88 -85 10 -7 16 -17 13 -22 -3 -4 1 -7 8 -7 6 1 43
-14 81 -33 86 -42 191 -52 279 -26 58 17 184 95 226 140 33 35 38 33 33 -11
-5 -44 -41 -86 -145 -170 -191 -153 -308 -137 -529 73 -53 51 -57 57 -62 112
-3 31 -10 72 -15 90 -11 36 -9 35 45 -5z m147 -312 c79 -57 121 -73 192 -73
92 -1 173 45 313 176 l52 49 0 -40 c0 -34 -7 -49 -47 -94 -113 -127 -171 -167
-269 -189 -48 -11 -135 0 -179 22 -48 25 -131 97 -184 160 -50 61 -56 74 -53
105 l4 35 57 -55 c31 -30 82 -73 114 -96z m-64 -71 c31 -30 81 -68 111 -85 49
-26 65 -30 140 -30 73 0 93 4 140 27 58 29 113 77 191 167 l46 53 7 -46 c8
-53 -5 -109 -45 -188 -41 -81 -106 -143 -187 -180 -57 -26 -79 -31 -150 -31
-75 0 -89 3 -156 37 -87 43 -142 100 -186 191 -34 71 -45 129 -35 181 l6 37
31 -39 c18 -21 57 -64 87 -94z m-120 -47 c17 -61 89 -162 147 -205 70 -54 132
-73 234 -73 74 0 93 4 152 32 43 20 85 50 118 85 52 54 110 160 110 201 1 46
18 -8 29 -92 12 -90 7 -106 -32 -97 -9 2 -15 1 -12 -4 3 -4 -6 -15 -19 -24
-27 -17 -69 -118 -106 -251 -31 -112 -86 -215 -105 -197 -5 4 -5 2 -2 -5 8
-14 -33 -55 -91 -89 -29 -17 -42 -21 -43 -12 0 7 0 56 1 108 1 73 6 100 20
120 25 35 65 128 73 170 10 49 -7 25 -22 -31 -7 -25 -27 -72 -45 -104 l-33
-57 -26 47 c-15 26 -36 73 -48 106 -12 32 -24 59 -26 59 -14 0 13 -81 48 -146
38 -73 39 -76 39 -179 l0 -104 -37 22 c-98 57 -151 142 -208 332 -55 181 -81
222 -159 248 -5 2 -4 41 4 100 8 54 17 94 20 90 4 -5 12 -27 19 -50z m1361
-175 c16 -46 49 -127 74 -182 44 -94 57 -158 36 -171 -14 -9 -47 50 -61 109
-6 28 -15 58 -20 66 -17 31 -9 -25 15 -92 18 -54 20 -68 9 -68 -21 0 -51 77
-85 213 -26 102 -29 126 -19 152 6 17 11 40 11 50 0 31 11 10 40 -77z m-553
-228 c-4 -161 -5 -167 -40 -255 -85 -218 -145 -319 -217 -368 -46 -32 -143
-14 -133 24 5 18 -14 210 -23 234 -3 7 14 23 40 39 95 55 154 145 201 301 58
196 79 239 128 260 l32 13 8 -41 c4 -23 6 -116 4 -207z m-795 213 c33 -35 61
-99 94 -217 48 -170 109 -264 205 -320 46 -26 47 -27 38 -64 -5 -20 -12 -81
-15 -135 -7 -92 -9 -99 -31 -108 -54 -20 -90 -11 -136 34 -59 57 -106 140
-172 307 l-55 140 0 195 0 195 23 0 c13 0 35 -12 49 -27z m768 -584 c-12 -79
-41 -234 -66 -344 -25 -110 -48 -236 -51 -280 -5 -75 -8 -82 -42 -118 -33 -36
-163 -117 -187 -117 -22 0 -43 392 -28 537 l7 60 37 -13 c41 -14 83 -7 126 21
52 34 159 225 200 359 10 32 20 54 22 48 1 -5 -7 -74 -18 -153z m-734 -73 c90
-180 180 -243 276 -195 14 8 17 -5 23 -114 4 -68 5 -143 2 -168 -7 -51 -22
-278 -20 -296 3 -34 -77 4 -179 84 -44 35 -65 58 -62 68 9 23 -14 178 -51 340
-38 163 -70 342 -79 445 l-6 65 28 -76 c16 -42 47 -110 68 -153z m620 -661
c-20 -53 -93 -425 -140 -710 -31 -191 -43 -278 -61 -448 -5 -47 -11 -60 -28
-66 -12 -5 -24 -7 -27 -6 -9 5 -3 137 10 230 9 66 11 133 4 255 -11 212 -11
358 0 495 l9 110 63 29 c34 15 87 50 116 77 59 53 63 56 54 34z m-531 -36 c34
-35 143 -99 168 -99 14 0 17 -11 17 -60 0 -32 5 -104 11 -159 9 -80 7 -141 -5
-298 -16 -197 -13 -278 13 -415 8 -44 7 -48 -11 -48 -13 0 -18 -6 -16 -17 2
-10 9 -17 15 -16 6 1 11 -15 11 -38 1 -33 -2 -40 -16 -37 -12 2 -19 18 -24 58
-4 30 -14 111 -23 180 -39 310 -165 983 -181 968 -2 -3 18 -117 45 -254 62
-309 117 -642 131 -794 14 -145 20 -164 48 -168 34 -5 40 -47 11 -78 -35 -37
-42 -29 -14 16 14 22 21 40 15 40 -5 0 -19 -18 -30 -40 -45 -88 -209 -193
-235 -150 -3 5 -12 7 -19 4 -37 -14 -19 21 39 77 83 80 96 117 96 285 -1 147
-15 221 -84 424 -50 150 -52 159 -52 265 0 130 32 385 49 385 6 0 25 -14 41
-31z m551 -135 c9 -65 17 -166 17 -224 0 -101 -1 -110 -52 -255 -57 -165 -91
-333 -91 -451 0 -64 5 -85 34 -147 32 -70 115 -168 140 -167 6 1 -10 20 -35
43 -43 39 -89 97 -89 111 0 14 138 -105 143 -123 6 -23 -14 -50 -41 -54 -12
-2 -25 -6 -28 -10 -13 -12 -51 -7 -64 8 -7 8 -22 15 -34 15 -28 0 -94 69 -130
134 -14 27 -25 49 -24 50 38 14 43 25 50 112 11 127 63 462 114 729 60 317 68
354 71 351 1 -1 10 -56 19 -122z m-552 -1115 c-27 -48 -110 -129 -133 -129 -6
0 -11 9 -11 20 0 12 26 40 68 73 37 30 73 61 81 70 25 30 23 18 -5 -34z m317
-16 c27 -44 20 -51 -20 -18 -20 17 -31 36 -31 52 0 21 2 23 15 13 8 -7 24 -28
36 -47z"/>
<path d="M1539 5340 c-29 -24 -18 -26 17 -4 24 16 27 16 54 -4 19 -14 31 -18
35 -11 4 6 14 8 22 5 8 -4 11 -1 8 5 -4 6 -14 8 -22 5 -8 -3 -24 1 -36 9 -29
20 -50 19 -78 -5z"/>
<path d="M1752 5344 c-12 -8 -22 -20 -22 -25 0 -6 12 -1 26 10 25 19 45 19 72
-2 7 -5 15 -7 19 -3 9 9 -28 35 -52 36 -11 0 -31 -7 -43 -16z"/>
<path d="M1564 5298 c1 -28 46 -40 46 -12 0 13 3 14 15 4 8 -7 15 -9 15 -5 0
13 -34 34 -56 35 -16 0 -21 -6 -20 -22z"/>
<path d="M1753 5308 c-13 -6 -23 -15 -23 -21 0 -5 7 -4 15 3 12 10 15 9 15 -4
0 -12 7 -16 23 -14 14 2 21 9 21 21 -2 20 7 22 26 5 12 -11 12 -10 1 5 -15 19
-45 21 -78 5z"/>
<path d="M1430 5280 c0 -33 25 -90 39 -90 11 0 23 31 16 39 -3 3 -10 -1 -15
-9 -7 -11 -11 -8 -19 13 -14 36 -14 60 -1 52 6 -3 10 1 10 9 0 9 -7 16 -15 16
-10 0 -15 -10 -15 -30z"/>
<path d="M1535 5300 c-3 -5 -1 -10 4 -10 6 0 11 5 11 10 0 6 -2 10 -4 10 -3 0
-8 -4 -11 -10z"/>
<path d="M1917 5303 c-11 -10 -8 -25 3 -18 16 10 12 -49 -5 -71 -14 -18 -14
-18 -15 4 0 13 -4 21 -9 18 -11 -7 -2 -46 10 -46 17 0 39 46 39 82 0 36 -8 47
-23 31z"/>
<path d="M1635 5239 c-4 -6 -5 -12 -2 -15 2 -3 7 2 10 11 7 17 1 20 -8 4z"/>
<path d="M1640 5195 c-11 -13 -10 -18 6 -30 10 -8 24 -14 29 -14 6 0 2 6 -8
13 -10 8 -15 20 -11 30 8 20 0 21 -16 1z"/>
<path d="M1715 5189 c4 -6 -1 -17 -11 -24 -13 -9 -14 -14 -6 -15 19 0 45 28
37 40 -3 5 -11 10 -16 10 -6 0 -7 -5 -4 -11z"/>
<path d="M1614 5094 c-18 -15 -18 -15 1 -9 29 11 106 12 133 3 12 -4 22 -3 22
2 0 23 -129 26 -156 4z"/>
<path d="M1647 5068 c5 -10 64 -10 80 0 6 4 -11 7 -37 7 -26 0 -46 -3 -43 -7z"/>
<path d="M1600 4940 c-9 -6 -10 -10 -3 -10 6 0 15 5 18 10 8 12 4 12 -15 0z"/>
<path d="M1644 4939 c-3 -6 -1 -16 5 -22 8 -8 11 -6 11 6 0 12 8 17 26 17 14
0 23 -4 19 -10 -3 -5 -13 -10 -21 -10 -24 0 -16 -16 10 -18 19 -1 24 3 24 23
0 22 -5 25 -34 25 -18 0 -36 -5 -40 -11z"/>
<path d="M1810 4856 c0 -8 4 -17 9 -20 5 -4 7 3 4 14 -6 23 -13 26 -13 6z"/>
<path d="M1880 4830 c-8 -5 -10 -10 -5 -10 6 0 17 5 25 10 8 5 11 10 5 10 -5
0 -17 -5 -25 -10z"/>
<path d="M1648 4818 c-9 -25 3 -34 37 -30 26 3 35 9 35 23 0 15 -7 19 -34 19
-19 0 -36 -6 -38 -12z m57 -8 c4 -6 -5 -10 -19 -10 -14 0 -26 5 -26 10 0 6 9
10 19 10 11 0 23 -4 26 -10z"/>
<path d="M1903 4805 c0 -8 4 -12 9 -9 5 3 6 10 3 15 -9 13 -12 11 -12 -6z"/>
<path d="M1500 4796 c0 -10 9 -16 21 -16 24 0 21 23 -4 28 -10 2 -17 -3 -17
-12z"/>
<path d="M1580 4790 c0 -18 -7 -20 -62 -21 -50 -1 -57 -3 -33 -9 17 -4 47 -8
68 -9 35 -1 37 1 37 29 0 17 -2 30 -5 30 -3 0 -5 -9 -5 -20z"/>
<path d="M1770 4785 c0 -33 20 -40 83 -28 l52 10 -57 2 c-51 1 -58 3 -58 21 0
11 -4 20 -10 20 -5 0 -10 -11 -10 -25z"/>
<path d="M1830 4796 c0 -10 9 -16 21 -16 24 0 21 23 -4 28 -10 2 -17 -3 -17
-12z"/>
<path d="M1207 4726 c-7 -16 1 -26 20 -26 7 0 13 9 13 20 0 23 -25 27 -33 6z"/>
<path d="M2125 4731 c-8 -15 3 -31 21 -31 9 0 14 7 12 17 -4 20 -24 28 -33 14z"/>
<path d="M1743 4625 c0 -8 4 -12 9 -9 5 3 6 10 3 15 -9 13 -12 11 -12 -6z"/>
<path d="M1650 4611 c0 -25 18 -37 33 -21 9 9 9 11 -2 8 -21 -5 -25 20 -4 25
14 4 13 5 -4 6 -17 1 -23 -5 -23 -18z"/>
<path d="M1705 4617 c-8 -19 -2 -31 13 -26 5 2 6 13 2 24 -7 19 -8 19 -15 2z"/>
<path d="M1124 4600 c0 -13 4 -16 10 -10 7 7 7 13 0 20 -6 6 -10 3 -10 -10z"/>
<path d="M987 4347 c-8 -22 6 -34 41 -34 20 0 32 5 32 14 0 7 -6 13 -12 13 -9
0 -8 4 2 10 8 5 10 10 5 10 -6 0 -19 -10 -30 -22 -13 -16 -20 -19 -23 -9 -2 7
2 17 9 22 11 7 11 9 -2 9 -9 0 -19 -6 -22 -13z"/>
<path d="M886 4075 c-3 -9 1 -18 10 -22 19 -7 28 2 21 22 -8 19 -23 19 -31 0z"/>
<path d="M2314 4345 c-3 -8 -3 -19 1 -25 8 -13 35 -13 35 0 0 6 -4 9 -9 8 -5
-2 -8 2 -7 7 0 6 4 9 9 8 4 -2 7 2 7 7 0 16 -30 12 -36 -5z"/>
<path d="M2360 4335 c0 -26 14 -33 26 -14 3 6 1 15 -6 19 -10 6 -9 9 1 13 10
4 9 6 -3 6 -13 1 -18 -7 -18 -24z"/>
<path d="M2454 4079 c-10 -17 13 -36 27 -22 12 12 4 33 -11 33 -5 0 -12 -5
-16 -11z"/>
<path d="M1259 4473 c5 -26 6 -26 9 -5 2 15 10 22 25 22 16 0 18 -3 9 -12 -16
-16 -15 -28 1 -28 6 0 13 11 13 25 2 22 -2 25 -31 25 -30 0 -32 -2 -26 -27z"/>
<path d="M2046 4492 c7 -4 14 -16 17 -27 4 -18 5 -18 6 3 1 13 7 22 17 22 11
0 14 -6 9 -20 -4 -14 -2 -20 8 -20 9 0 15 10 15 25 0 23 -4 25 -42 25 -22 0
-36 -4 -30 -8z"/>
<path d="M1336 4462 c-3 -5 1 -9 9 -9 8 0 12 4 9 9 -3 4 -7 8 -9 8 -2 0 -6 -4
-9 -8z"/>
<path d="M1660 4425 c6 -8 9 -19 5 -25 -3 -5 -2 -10 3 -10 5 0 12 11 14 25 4
20 1 25 -15 25 -16 0 -17 -3 -7 -15z"/>
<path d="M1704 4423 c4 -9 1 -20 -6 -25 -10 -6 -9 -8 3 -8 9 0 18 3 21 6 9 8
-3 44 -14 44 -6 0 -7 -8 -4 -17z"/>
<path d="M1512 4414 c4 -21 22 -23 26 -1 2 10 -3 17 -13 17 -10 0 -15 -6 -13
-16z"/>
<path d="M1822 4413 c2 -10 10 -18 18 -18 8 0 16 8 18 18 2 12 -3 17 -18 17
-15 0 -20 -5 -18 -17z"/>
<path d="M1665 4320 c-11 -5 -14 -9 -7 -9 6 -1 12 -10 12 -20 0 -35 15 -30 16
5 0 19 0 34 0 33 -1 0 -10 -4 -21 -9z"/>
<path d="M1870 4326 c0 -2 8 -10 18 -17 15 -13 16 -12 3 4 -13 16 -21 21 -21
13z"/>
<path d="M1517 4313 c-13 -12 -7 -33 8 -33 8 0 15 9 15 20 0 20 -11 26 -23 13z"/>
<path d="M1697 4307 c-2 -6 2 -18 9 -25 12 -11 14 -8 14 13 0 26 -14 34 -23
12z"/>
<path d="M1827 4314 c-14 -14 -7 -35 11 -32 9 2 17 10 17 17 0 16 -18 25 -28
15z"/>
<path d="M1905 4289 c-4 -6 -5 -12 -2 -15 2 -3 7 2 10 11 7 17 1 20 -8 4z"/>
<path d="M1770 4281 c0 -6 4 -13 10 -16 6 -3 7 1 4 9 -7 18 -14 21 -14 7z"/>
<path d="M1435 4200 c-3 -6 1 -7 9 -4 18 7 21 14 7 14 -6 0 -13 -4 -16 -10z"/>
<path d="M1514 4196 c-4 -10 -2 -22 4 -28 8 -8 13 -7 18 6 4 10 2 22 -4 28 -8
8 -13 7 -18 -6z"/>
<path d="M1824 4195 c-3 -8 -3 -19 0 -24 9 -13 36 -2 36 14 0 19 -30 27 -36
10z"/>
<path d="M1659 4191 c8 -5 11 -16 8 -25 -4 -9 -3 -16 2 -16 5 0 11 11 13 25 4
20 1 25 -16 25 -16 0 -18 -2 -7 -9z"/>
<path d="M1700 4190 c0 -5 7 -7 15 -4 8 4 15 8 15 10 0 2 -7 4 -15 4 -8 0 -15
-4 -15 -10z"/>
<path d="M1710 4169 c0 -5 -6 -7 -12 -3 -10 5 -10 4 -1 -6 6 -7 16 -9 22 -6
14 9 14 26 1 26 -5 0 -10 -5 -10 -11z"/>
<path d="M1516 4103 c-12 -12 -6 -33 9 -33 8 0 15 6 15 14 0 17 -14 28 -24 19z"/>
<path d="M1827 4104 c-14 -14 -7 -35 11 -32 9 2 17 10 17 17 0 16 -18 25 -28
15z"/>
<path d="M1665 4089 c-11 -4 -14 -8 -7 -8 6 -1 12 -11 13 -23 1 -19 2 -18 10
6 10 35 10 36 -16 25z"/>
<path d="M1693 4074 c-8 -22 15 -44 26 -25 10 16 4 41 -10 41 -5 0 -12 -7 -16
-16z"/>
<path d="M1512 3984 c4 -21 22 -23 26 -1 2 10 -3 17 -13 17 -10 0 -15 -6 -13
-16z"/>
<path d="M1822 3983 c2 -10 10 -18 18 -18 22 0 18 29 -3 33 -14 3 -18 -1 -15
-15z"/>
<path d="M1663 3965 c11 -23 12 -23 15 -5 2 11 9 20 17 20 9 0 11 -8 8 -22 -7
-26 -1 -23 16 10 11 21 10 22 -28 22 -38 0 -39 -1 -28 -25z"/>
<path d="M2304 3996 c-4 -10 -2 -22 4 -28 8 -8 13 -7 18 6 4 10 2 22 -4 28 -8
8 -13 7 -18 -6z"/>
<path d="M2387 3761 c7 -32 13 -40 13 -18 0 8 2 22 5 30 4 8 0 14 -9 14 -12 0
-14 -7 -9 -26z"/>
<path d="M2421 3773 c0 -5 4 -17 9 -28 8 -18 9 -17 9 8 1 15 -3 27 -9 27 -5 0
-10 -3 -9 -7z"/>
<path d="M2426 3693 c-6 -14 -5 -15 5 -6 7 7 10 15 7 18 -3 3 -9 -2 -12 -12z"/>
<path d="M770 3805 c0 -2 6 -8 13 -14 10 -8 14 -7 14 2 0 8 -6 14 -14 14 -7 0
-13 -1 -13 -2z"/>
<path d="M944 3783 c-6 -2 -9 -15 -6 -31 l5 -27 8 29 c9 33 9 35 -7 29z"/>
<path d="M970 3773 c0 -5 5 -15 10 -23 8 -12 10 -11 10 8 0 12 -4 22 -10 22
-5 0 -10 -3 -10 -7z"/>
<path d="M765 3669 c-4 -6 -4 -13 -1 -16 3 -4 6 -1 6 6 0 7 5 9 12 5 7 -4 8
-3 4 4 -9 15 -13 15 -21 1z"/>
<path d="M730 3624 c-11 -12 -10 -18 3 -31 9 -9 20 -13 24 -9 4 4 1 12 -7 17
-11 8 -12 12 -2 16 14 5 17 23 3 23 -5 0 -14 -7 -21 -16z"/>
<path d="M774 3626 c-8 -21 3 -49 16 -41 10 6 9 40 -3 51 -4 4 -9 -1 -13 -10z"/>
<path d="M744 3541 c4 -5 1 -12 -4 -14 -6 -3 -5 -4 2 -3 15 3 23 26 8 26 -6 0
-9 -4 -6 -9z"/>
<path d="M523 3195 c0 -8 4 -12 9 -9 5 3 6 10 3 15 -9 13 -12 11 -12 -6z"/>
<path d="M2023 3984 c4 -4 1 -14 -6 -23 -11 -14 -10 -15 8 -1 11 8 21 15 23
16 2 1 -5 5 -15 8 -9 4 -14 4 -10 0z"/>
<path d="M1388 3943 c7 -3 16 -2 19 1 4 3 -2 6 -13 5 -11 0 -14 -3 -6 -6z"/>
<path d="M1510 3870 c0 -11 7 -20 15 -20 8 0 15 9 15 20 0 11 -7 20 -15 20 -8
0 -15 -9 -15 -20z"/>
<path d="M1824 3879 c-10 -17 13 -36 27 -22 12 12 4 33 -11 33 -5 0 -12 -5
-16 -11z"/>
<path d="M1664 3855 c4 -35 16 -44 16 -11 0 16 4 25 10 21 6 -4 8 -10 6 -14
-3 -4 0 -13 5 -21 8 -13 10 -13 18 -1 14 21 -3 46 -32 49 -22 1 -25 -2 -23
-23z"/>
<path d="M1823 3754 c-7 -19 2 -28 22 -21 19 8 19 23 0 31 -9 3 -18 -1 -22
-10z"/>
<path d="M1575 3740 c-3 -6 1 -7 9 -4 18 7 21 14 7 14 -6 0 -13 -4 -16 -10z"/>
<path d="M1658 3744 c6 -3 12 -15 13 -27 1 -20 2 -20 9 3 l8 25 7 -23 c9 -27
30 -24 30 4 0 15 -8 19 -40 21 -22 1 -34 -1 -27 -3z"/>
<path d="M1512 3633 c4 -21 33 -25 33 -3 0 8 -8 16 -18 18 -14 3 -18 -1 -15
-15z"/>
<path d="M1822 3633 c2 -10 10 -18 18 -18 22 0 18 29 -3 33 -14 3 -18 -1 -15
-15z"/>
<path d="M1599 3618 c-5 -9 -5 -48 -1 -43 6 6 11 45 5 45 -2 0 -4 -1 -4 -2z"/>
<path d="M1638 3585 c2 -14 9 -25 14 -25 5 0 8 6 6 14 -5 24 17 19 24 -6 5
-20 6 -20 7 7 1 27 -3 31 -28 33 -25 2 -28 -1 -23 -23z"/>
<path d="M1703 3594 c-8 -21 13 -42 28 -27 13 13 5 43 -11 43 -6 0 -13 -7 -17
-16z m22 -3 c3 -5 1 -12 -5 -16 -5 -3 -10 1 -10 9 0 18 6 21 15 7z"/>
<path d="M1404 3608 c-4 -6 -3 -8 4 -5 15 10 43 -3 35 -16 -4 -6 -1 -7 7 -2
10 6 9 11 -5 22 -23 16 -32 16 -41 1z"/>
<path d="M1514 3519 c-10 -17 13 -36 27 -22 12 12 4 33 -11 33 -5 0 -12 -5
-16 -11z"/>
<path d="M1820 3510 c0 -15 5 -20 18 -18 9 2 17 10 17 18 0 8 -8 16 -17 18
-13 2 -18 -3 -18 -18z"/>
<path d="M1599 3497 c-15 -11 -15 -14 -1 -27 14 -13 15 -12 10 2 -4 8 -1 21 5
27 15 15 6 14 -14 -2z"/>
<path d="M1635 3483 c3 -8 5 -22 5 -30 0 -24 13 -7 16 20 1 15 -3 24 -12 24
-9 0 -13 -6 -9 -14z"/>
<path d="M1712 3470 c0 -19 2 -27 5 -17 2 9 2 25 0 35 -3 9 -5 1 -5 -18z"/>
<path d="M1676 3482 c-2 -4 -1 -14 5 -22 7 -12 9 -10 9 8 0 23 -5 28 -14 14z"/>
<path d="M1638 3325 c5 -31 19 -33 25 -2 4 22 4 22 15 -3 l11 -25 0 25 c1 21
-4 26 -28 28 -25 2 -28 -1 -23 -23z"/>
<path d="M1715 3340 c4 -6 1 -17 -5 -25 -10 -12 -9 -15 4 -15 10 0 15 4 11 9
-3 5 -1 12 5 16 12 7 4 25 -11 25 -6 0 -7 -5 -4 -10z"/>
<path d="M1480 3326 c0 -8 4 -17 8 -20 13 -8 35 11 28 23 -10 16 -36 14 -36
-3z"/>
<path d="M1852 3323 c2 -10 10 -18 18 -18 22 0 18 29 -3 33 -14 3 -18 -1 -15
-15z"/>
<path d="M1306 3373 c-6 -14 -5 -15 5 -6 7 7 10 15 7 18 -3 3 -9 -2 -12 -12z"/>
<path d="M1400 3226 c0 -21 5 -26 23 -25 18 1 18 2 4 6 -11 3 -16 11 -13 19 3
7 1 16 -4 19 -6 4 -10 -5 -10 -19z"/>
<path d="M1447 3243 c-3 -5 -1 -17 4 -28 7 -17 8 -17 8 8 1 27 -4 34 -12 20z"/>
<path d="M1901 3228 c-1 -21 4 -28 17 -28 11 0 13 3 6 8 -7 4 -14 16 -17 27
-4 15 -5 14 -6 -7z"/>
<path d="M1940 3220 c0 -11 5 -20 10 -20 6 0 10 9 10 20 0 11 -4 20 -10 20 -5
0 -10 -9 -10 -20z"/>
<path d="M1682 3160 c0 -14 2 -19 5 -12 2 6 2 18 0 25 -3 6 -5 1 -5 -13z"/>
<path d="M1880 3116 c0 -3 9 -10 20 -16 11 -6 20 -8 20 -6 0 3 -9 10 -20 16
-11 6 -20 8 -20 6z"/>
<path d="M1500 3065 c0 -8 9 -15 20 -15 11 0 20 7 20 15 0 8 -9 15 -20 15 -11
0 -20 -7 -20 -15z"/>
<path d="M1830 3065 c0 -8 9 -15 20 -15 11 0 20 7 20 15 0 8 -9 15 -20 15 -11
0 -20 -7 -20 -15z"/>
<path d="M1569 2863 c-12 -16 -12 -17 2 -6 9 7 20 9 24 5 5 -4 5 -1 1 6 -9 16
-11 15 -27 -5z"/>
<path d="M1805 2870 c-4 -6 -10 -8 -14 -6 -4 3 -8 -1 -8 -9 0 -13 4 -12 19 2
18 16 22 23 14 23 -3 0 -8 -5 -11 -10z"/>
<path d="M1880 2835 c-9 -11 -10 -19 -3 -26 7 -7 15 -4 24 8 13 16 12 17 -3 4
-20 -15 -25 -2 -6 17 7 7 9 12 6 12 -3 0 -11 -7 -18 -15z"/>
<path d="M1795 2750 c-3 -6 1 -7 9 -4 18 7 21 14 7 14 -6 0 -13 -4 -16 -10z"/>
<path d="M1871 2705 c-1 -30 0 -31 35 -27 22 3 31 7 24 12 -7 4 -20 5 -30 3
-13 -4 -20 2 -23 19 -3 19 -5 18 -6 -7z"/>
<path d="M1905 2720 c-3 -5 -4 -10 -1 -10 2 0 12 -3 20 -6 12 -5 15 -2 10 10
-7 18 -20 21 -29 6z"/>
<path d="M1776 2631 c-7 -11 18 -33 27 -24 4 3 7 12 7 20 0 15 -26 18 -34 4z"/>
<path d="M1450 2821 c0 -6 4 -13 10 -16 6 -3 7 1 4 9 -7 18 -14 21 -14 7z"/>
<path d="M1438 2724 c-20 -19 -7 -42 26 -46 30 -3 33 -1 34 24 0 19 -4 28 -14
28 -11 0 -13 -6 -9 -20 4 -14 2 -20 -9 -20 -8 0 -16 9 -18 21 -2 11 -6 17 -10
13z"/>
<path d="M1556 2631 c-7 -11 18 -33 27 -24 4 3 7 12 7 20 0 15 -26 18 -34 4z"/>
<path d="M1871 2218 c-1 -28 12 -38 42 -30 18 4 24 37 8 46 -14 9 -22 -6 -10
-21 9 -10 7 -13 -9 -13 -13 0 -22 8 -25 23 -4 19 -4 19 -6 -5z"/>
<path d="M1771 2099 c-1 -14 6 -34 14 -45 18 -23 18 -10 0 36 -12 32 -14 33
-14 9z"/>
<path d="M1890 2103 c0 -10 -3 -29 -6 -43 -5 -17 -3 -22 4 -15 15 15 26 75 13
75 -6 0 -11 -8 -11 -17z"/>
<path d="M1823 2088 c1 -15 6 -23 11 -18 4 4 4 16 -2 26 -9 16 -10 14 -9 -8z"/>
<path d="M1724 2079 c-3 -6 -2 -15 4 -21 13 -13 32 -2 32 18 0 16 -26 19 -36
3z"/>
<path d="M1755 1901 c-3 -5 0 -13 6 -17 7 -4 9 -3 5 4 -3 5 0 13 6 15 9 4 10
6 1 6 -6 1 -14 -3 -18 -8z"/>
<path d="M1476 2231 c-4 -5 -1 -13 5 -17 8 -4 7 -9 -2 -15 -11 -7 -10 -9 4 -9
10 0 17 8 17 19 0 22 -16 36 -24 22z"/>
<path d="M1430 2210 c0 -11 6 -20 14 -20 9 0 12 7 9 20 -3 11 -9 20 -14 20 -5
0 -9 -9 -9 -20z"/>
<path d="M1460 2099 c0 -14 7 -34 15 -45 14 -18 15 -17 9 11 -10 46 -23 65
-24 34z"/>
<path d="M1527 2091 c-4 -17 -3 -21 5 -13 5 5 8 16 6 23 -3 8 -7 3 -11 -10z"/>
<path d="M1580 2098 c0 -7 -3 -24 -6 -38 -5 -17 -3 -22 3 -15 15 15 25 65 13
65 -5 0 -10 -6 -10 -12z"/>
<path d="M1610 2069 c0 -24 23 -21 28 4 2 10 -3 17 -12 17 -10 0 -16 -9 -16
-21z"/>
<path d="M1566 2008 c3 -5 10 -6 15 -3 13 9 11 12 -6 12 -8 0 -12 -4 -9 -9z"/>
<path d="M1791 1618 c-1 -24 2 -27 29 -25 24 2 30 7 30 25 0 27 -16 29 -25 2
-8 -27 -23 -25 -28 3 -4 19 -4 18 -6 -5z"/>
<path d="M1730 845 c0 -8 7 -15 15 -15 8 0 15 7 15 15 0 8 -7 15 -15 15 -8 0
-15 -7 -15 -15z"/>
<path d="M1501 1824 c0 -11 3 -14 6 -6 3 7 2 16 -1 19 -3 4 -6 -2 -5 -13z"/>
<path d="M1531 1618 c-1 -24 2 -27 29 -25 25 2 30 6 30 27 l-1 25 -18 -22
c-11 -13 -22 -23 -24 -23 -3 0 -8 10 -10 23 -4 19 -4 18 -6 -5z"/>
<path d="M1547 1559 c7 -7 15 -10 18 -7 3 3 -2 9 -12 12 -14 6 -15 5 -6 -5z"/>
<path d="M1411 1454 c-1 -28 1 -30 29 -26 21 3 30 10 30 23 0 22 -16 33 -26
18 -3 -6 0 -15 7 -20 11 -6 8 -9 -8 -9 -15 0 -23 7 -26 23 -3 17 -5 15 -6 -9z"/>
<path d="M1501 1204 c0 -11 3 -14 6 -6 3 7 2 16 -1 19 -3 4 -6 -2 -5 -13z"/>
<path d="M1437 634 c-14 -14 -7 -35 11 -32 9 2 17 10 17 17 0 16 -18 25 -28
15z"/>
<path d="M1526 632 c-3 -5 1 -9 9 -9 8 0 12 4 9 9 -3 4 -7 8 -9 8 -2 0 -6 -4
-9 -8z"/>
<path d="M1911 1454 c-1 -30 0 -31 30 -25 16 3 30 9 30 14 -1 4 -1 14 -1 23 0
9 -5 14 -12 12 -20 -7 -20 -26 -1 -31 12 -3 9 -5 -9 -6 -20 -1 -28 4 -31 22
-3 16 -5 14 -6 -9z"/>
<path d="M1915 631 c-8 -15 3 -31 21 -31 9 0 14 7 12 17 -4 20 -24 28 -33 14z"/>
<path d="M2530 5621 c-50 -11 -143 -55 -159 -74 -7 -9 -10 -24 -7 -33 4 -10
-1 -39 -10 -66 -12 -38 -13 -55 -5 -80 17 -49 13 -86 -16 -138 -25 -45 -26
-50 -12 -67 18 -20 39 -97 39 -141 0 -16 7 -35 15 -42 15 -12 71 -10 108 5 13
5 17 2 17 -13 0 -11 7 -35 15 -55 17 -41 12 -64 -34 -154 -55 -110 -72 -103
230 -103 l262 0 -6 49 c-8 67 -45 136 -107 198 -56 56 -73 99 -64 168 3 31 14
49 48 81 53 48 70 101 63 190 -12 160 -121 270 -275 279 -37 2 -83 0 -102 -4z
m176 -22 c19 -7 21 -12 13 -57 -10 -65 -50 -216 -59 -222 -4 -3 -7 -12 -7 -20
0 -17 -70 -236 -84 -262 -8 -15 -64 -37 -132 -52 -15 -4 -37 -2 -48 5 -17 9
-19 17 -14 50 4 25 3 39 -4 39 -6 0 -11 5 -11 11 0 6 9 8 20 4 29 -9 24 4 -6
15 -15 6 -22 15 -18 21 4 7 -3 19 -14 28 l-22 16 30 62 c28 58 29 64 18 116
-9 44 -9 64 2 99 8 23 14 54 15 68 0 20 11 30 58 53 32 16 77 32 100 37 44 8
126 3 163 -11z m120 -82 c47 -55 66 -111 66 -196 0 -89 -14 -125 -66 -164 -19
-15 -37 -39 -40 -55 -7 -30 -40 -57 -58 -46 -6 4 -8 3 -4 -4 8 -13 -89 -79
-136 -92 -52 -15 -78 -13 -78 8 0 12 19 27 60 45 59 27 90 63 90 102 0 9 8 24
19 33 41 37 54 139 22 169 -19 18 -19 19 5 102 13 46 24 93 24 105 0 11 3 31
6 43 l6 23 28 -20 c16 -11 41 -35 56 -53z m-128 -219 c7 -7 12 -22 12 -35 0
-35 -30 -103 -46 -103 -8 0 -14 -10 -14 -25 0 -33 -25 -82 -48 -94 -14 -7 -10
13 23 115 22 68 44 122 50 120 13 -4 8 -48 -7 -58 -7 -4 -9 -10 -5 -14 10 -11
24 6 32 37 4 17 1 31 -9 42 -9 8 -16 18 -16 21 0 10 15 7 28 -6z m69 -382
c-18 -15 -54 -43 -82 -61 -60 -39 -199 -110 -193 -98 47 94 51 108 41 145
l-10 38 32 0 c37 0 105 34 173 86 l46 35 12 -58 13 -58 -32 -29z m159 -111
c15 -28 16 -36 5 -49 -7 -9 -18 -13 -24 -9 -5 3 -7 1 -4 -4 4 -6 0 -16 -9 -24
-13 -10 -16 -9 -21 9 -3 12 -10 22 -15 22 -6 0 -7 -7 -4 -16 24 -63 32 -59
-134 -59 l-151 0 6 23 c3 12 1 22 -4 22 -5 0 -12 -11 -15 -24 -5 -22 -10 -24
-48 -19 -24 3 -44 7 -46 8 -1 1 2 13 8 26 8 16 40 37 94 62 46 22 121 67 167
102 l84 63 46 -50 c26 -27 55 -64 65 -83z m26 -94 c3 -32 1 -34 -30 -36 -45
-4 -48 10 -10 44 18 16 34 29 35 28 0 -1 3 -17 5 -36z"/>
<path d="M2374 5373 c11 -11 76 -31 76 -23 0 4 -11 12 -25 18 -28 13 -63 16
-51 5z"/>
<path d="M2395 5322 c9 -35 12 -37 30 -22 21 17 19 23 -11 37 -25 12 -26 11
-19 -15z"/>
<path d="M2380 5210 c0 -5 -7 -10 -15 -10 -8 0 -15 -5 -15 -10 0 -7 6 -7 20 0
18 10 28 30 15 30 -3 0 -5 -4 -5 -10z"/>
<path d="M2355 5160 c3 -5 11 -10 16 -10 6 0 7 5 4 10 -3 6 -11 10 -16 10 -6
0 -7 -4 -4 -10z"/>
<path d="M2760 5536 c0 -2 7 -7 16 -10 8 -3 12 -2 9 4 -6 10 -25 14 -25 6z"/>
<path d="M2757 5256 c-8 -20 11 -32 53 -34 23 -1 30 1 21 7 -9 6 -10 11 -2 15
19 12 1 26 -34 26 -19 0 -35 -6 -38 -14z m58 -6 c-3 -5 -15 -10 -26 -10 -10 0
-19 5 -19 10 0 6 12 10 26 10 14 0 23 -4 19 -10z"/>
<path d="M2787 5203 c-4 -3 -7 -12 -7 -20 0 -15 26 -18 34 -4 7 11 -18 33 -27
24z"/>
<path d="M2620 4921 c0 -22 26 -35 36 -19 4 6 3 8 -4 4 -6 -3 -13 -2 -17 3 -3
5 3 14 12 20 16 9 16 10 -4 11 -16 0 -23 -6 -23 -19z"/>
<path d="M2679 4931 c9 -6 10 -11 2 -15 -6 -4 -9 -12 -5 -17 8 -14 24 0 24 22
0 11 -7 19 -17 19 -14 0 -15 -2 -4 -9z"/>
<path d="M2576 4885 c-3 -9 1 -18 10 -22 19 -7 28 2 21 22 -8 19 -23 19 -31 0z"/>
<path d="M2735 4801 c-8 -15 3 -31 21 -31 9 0 14 7 12 17 -4 20 -24 28 -33 14z"/>
<path d="M2799 4783 c-13 -16 -12 -17 4 -4 9 7 17 15 17 17 0 8 -8 3 -21 -13z"/>
<path d="M2855 4789 c-4 -6 -5 -12 -2 -15 2 -3 7 2 10 11 7 17 1 20 -8 4z"/>
<path d="M2767 4743 c-4 -3 -7 -15 -7 -25 0 -19 34 -26 44 -9 4 5 -3 7 -14 4
-11 -3 -20 0 -20 6 0 6 7 11 16 11 8 0 12 5 9 10 -7 12 -19 13 -28 3z"/>
<path d="M2816 4741 c-7 -11 3 -41 14 -41 4 0 5 11 2 25 -5 27 -8 30 -16 16z"/>
<path d="M2326 5588 c3 -5 10 -6 15 -3 13 9 11 12 -6 12 -8 0 -12 -4 -9 -9z"/>
<path d="M2856 5583 c-6 -14 -5 -15 5 -6 7 7 10 15 7 18 -3 3 -9 -2 -12 -12z"/>
<path d="M1983 5348 c1 -15 6 -23 11 -18 4 4 4 16 -2 26 -9 16 -10 14 -9 -8z"/>
<path d="M496 5132 c-2 -4 4 -8 14 -8 10 0 16 4 14 8 -3 4 -9 8 -14 8 -5 0
-11 -4 -14 -8z"/>
<path d="M1020 4980 c-9 -6 -10 -10 -3 -10 6 0 15 5 18 10 8 12 4 12 -15 0z"/>
<path d="M1340 4870 c-9 -6 -10 -10 -3 -10 6 0 15 5 18 10 8 12 4 12 -15 0z"/>
<path d="M907 4783 c3 -7 6 -13 8 -13 2 0 5 6 8 13 3 8 -1 14 -8 14 -7 0 -11
-6 -8 -14z"/>
<path d="M551 4338 c-39 -81 -73 -139 -89 -152 -48 -36 -152 -139 -147 -144 3
-3 17 5 32 19 14 13 23 19 20 13 -9 -16 17 -36 36 -28 31 12 24 -15 -22 -85
-51 -76 -105 -121 -124 -102 -12 12 25 69 78 121 19 19 35 38 35 43 0 10 -63
-54 -97 -97 -19 -25 -23 -27 -29 -12 -9 23 35 84 57 79 21 -6 35 15 20 30 -9
9 -22 2 -52 -30 -36 -39 -50 -79 -32 -97 4 -4 8 -17 8 -29 0 -28 30 -34 56
-11 24 22 24 18 -1 -34 -22 -44 -19 -92 5 -92 8 0 27 17 44 37 l30 37 -5 -36
c-5 -30 -3 -38 15 -47 19 -11 25 -6 67 61 59 92 62 95 61 64 0 -29 19 -56 39
-56 15 0 24 12 29 42 3 13 7 34 10 48 6 29 -16 67 -33 56 -19 -11 -14 -36 7
-36 17 0 18 -4 10 -37 -17 -66 -18 -67 -34 -53 -9 7 -15 29 -15 53 0 39 -1 40
-17 24 -10 -9 -36 -48 -59 -85 -37 -61 -74 -92 -74 -61 0 6 16 49 36 95 19 46
32 89 28 95 -4 8 -3 9 4 5 7 -4 17 6 26 26 88 200 123 272 180 358 37 56 62
100 55 98 -6 -2 -37 -45 -68 -95 -44 -72 -64 -95 -91 -106 -19 -8 -36 -11 -38
-6 -2 5 22 63 54 129 31 66 55 122 52 125 -3 3 -33 -54 -67 -127z m7 -150 c-6
-13 -13 -30 -15 -38 -1 -8 -17 -46 -36 -85 -19 -38 -37 -80 -41 -92 -4 -13
-15 -23 -25 -23 -13 0 -17 -7 -16 -30 1 -18 -8 -45 -23 -66 -14 -20 -19 -33
-12 -29 8 5 11 3 8 -6 -3 -8 -10 -13 -15 -12 -6 1 -23 -11 -38 -27 -39 -40
-49 -38 -41 10 7 45 61 137 71 121 8 -14 35 -14 35 -1 0 5 -5 9 -11 8 -6 -2
-14 3 -17 11 -3 10 0 12 12 8 9 -4 16 -2 16 2 0 5 -5 11 -10 13 -6 2 21 45 60
96 82 109 90 122 67 103 -10 -7 -33 -36 -53 -62 -33 -45 -54 -55 -54 -26 0 7
4 6 11 -3 8 -12 9 -10 7 10 -3 21 -8 25 -33 24 -30 -1 -30 -1 22 45 33 30 68
51 95 58 24 5 44 11 46 12 1 0 -3 -9 -10 -21z m-148 -118 c0 -5 -7 -10 -15
-10 -8 0 -15 5 -15 10 0 6 7 10 15 10 8 0 15 -4 15 -10z"/>
<path d="M333 3835 c-7 -20 2 -29 21 -22 9 4 13 13 10 22 -8 19 -23 19 -31 0z"/>
<path d="M2721 4464 c-1 -7 24 -63 54 -125 50 -105 63 -139 50 -139 -2 0 -19
7 -37 16 -24 11 -50 43 -91 110 -32 52 -63 94 -68 94 -11 0 -12 -17 0 -22 22
-8 132 -199 194 -338 38 -85 85 -190 104 -233 24 -54 32 -82 25 -89 -15 -15
-26 -5 -70 70 -23 38 -48 74 -56 82 -14 11 -16 8 -16 -28 0 -23 -6 -45 -15
-52 -19 -15 -20 -14 -28 26 -5 26 -3 31 11 30 22 -1 22 28 1 32 -20 4 -31 -34
-23 -77 11 -54 59 -37 66 24 3 28 5 26 47 -43 47 -78 70 -99 89 -80 16 16 15
43 -3 78 -9 17 -15 32 -15 35 0 3 -7 19 -15 35 -9 17 -13 35 -10 40 3 6 1 10
-4 10 -6 0 -11 6 -11 13 0 7 9 13 21 13 14 0 19 -5 16 -18 -3 -10 -1 -18 4
-18 5 0 9 8 9 17 0 15 2 15 14 3 25 -25 76 -131 76 -156 0 -34 -13 -30 -49 14
-17 20 -30 32 -31 26 0 -6 16 -28 35 -50 33 -37 35 -38 50 -20 16 21 12 56
-11 93 -20 31 -17 39 5 19 30 -28 54 -17 63 29 5 22 6 50 4 61 -3 12 -63 79
-133 150 -123 124 -130 134 -189 254 -34 69 -63 120 -63 114z m108 -269 c35
-3 188 -147 187 -177 -1 -16 4 -22 16 -20 9 1 28 -12 43 -32 21 -28 24 -39 16
-53 -6 -10 -11 -13 -11 -6 0 13 -110 130 -110 118 0 -4 21 -30 46 -58 52 -58
78 -103 65 -112 -10 -6 -81 32 -81 44 0 4 -21 35 -46 70 -33 45 -43 66 -34 71
9 6 9 9 -1 13 -12 4 -11 7 1 16 13 9 13 11 -2 11 -9 0 -18 -6 -21 -12 -3 -9
-11 -4 -23 12 -25 34 -77 88 -68 70 4 -8 36 -52 71 -98 35 -46 61 -87 58 -92
-2 -4 -15 -7 -27 -7 -19 0 -30 15 -66 91 -23 50 -44 102 -47 115 -2 12 -10 30
-17 39 -11 14 -10 15 7 7 11 -4 31 -9 44 -10z"/>
<path d="M2942 4058 c2 -13 8 -23 13 -23 6 0 11 10 13 23 2 15 -2 22 -13 22
-11 0 -15 -7 -13 -22z"/>
<path d="M658 4438 c5 -5 16 -8 23 -6 8 3 3 7 -10 11 -17 4 -21 3 -13 -5z"/>
<path d="M2665 4440 c-3 -5 -2 -10 4 -10 5 0 13 5 16 10 3 6 2 10 -4 10 -5 0
-13 -4 -16 -10z"/>
<path d="M616 4402 c-3 -5 1 -9 9 -9 8 0 12 4 9 9 -3 4 -7 8 -9 8 -2 0 -6 -4
-9 -8z"/>
<path d="M506 4387 c3 -10 9 -15 12 -12 3 3 0 11 -7 18 -10 9 -11 8 -5 -6z"/>
<path d="M2601 4374 c0 -11 3 -14 6 -6 3 7 2 16 -1 19 -3 4 -6 -2 -5 -13z"/>
<path d="M2706 4373 c-6 -14 -5 -15 5 -6 7 7 10 15 7 18 -3 3 -9 -2 -12 -12z"/>
<path d="M737 4350 c3 -11 9 -22 13 -25 5 -3 6 4 3 15 -3 11 -9 22 -13 25 -5
3 -6 -4 -3 -15z"/>
<path d="M696 4332 c-2 -4 -1 -14 4 -22 7 -11 9 -9 7 8 -1 24 -3 26 -11 14z"/>
<path d="M761 4294 c0 -11 3 -14 6 -6 3 7 2 16 -1 19 -3 4 -6 -2 -5 -13z"/>
<path d="M2565 4290 c-3 -5 -1 -10 4 -10 6 0 11 5 11 10 0 6 -2 10 -4 10 -3 0
-8 -4 -11 -10z"/>
<path d="M2670 4271 c0 -6 4 -13 10 -16 6 -3 7 1 4 9 -7 18 -14 21 -14 7z"/>
<path d="M703 4189 c-65 -65 -71 -74 -66 -104 3 -21 -3 -54 -16 -89 -32 -86
-24 -91 10 -7 20 51 28 83 24 102 -6 25 1 35 62 93 37 35 65 67 62 70 -3 3
-37 -26 -76 -65z"/>
<path d="M2560 4254 c0 -6 30 -39 66 -74 55 -53 64 -68 59 -88 -6 -24 52 -208
63 -198 2 3 -1 19 -7 37 -13 38 -12 41 31 43 18 1 32 5 31 9 -2 4 -3 13 -3 21
0 22 -62 15 -70 -9 -6 -16 -9 -13 -19 18 -7 21 -11 55 -9 75 4 32 0 41 -31 71
-20 18 -53 50 -73 69 -21 20 -38 32 -38 26z m201 -267 c-13 -13 -26 -3 -16 12
3 6 11 8 17 5 6 -4 6 -10 -1 -17z"/>
<path d="M2930 4226 c0 -2 7 -7 16 -10 8 -3 12 -2 9 4 -6 10 -25 14 -25 6z"/>
<path d="M770 4186 c0 -2 8 -10 18 -17 15 -13 16 -12 3 4 -13 16 -21 21 -21
13z"/>
<path d="M619 4163 c-13 -16 -12 -17 4 -4 16 13 21 21 13 21 -2 0 -10 -8 -17
-17z"/>
<path d="M696 4122 c-3 -5 1 -9 9 -9 8 0 12 4 9 9 -3 4 -7 8 -9 8 -2 0 -6 -4
-9 -8z"/>
<path d="M246 4072 c-3 -5 1 -9 9 -9 8 0 12 4 9 9 -3 4 -7 8 -9 8 -2 0 -6 -4
-9 -8z"/>
<path d="M283 4065 c0 -8 4 -12 9 -9 5 3 6 10 3 15 -9 13 -12 11 -12 -6z"/>
<path d="M534 4035 c-7 -18 14 -47 27 -39 15 9 10 24 -6 18 -11 -5 -13 -2 -9
10 3 9 11 13 17 9 6 -3 7 -1 3 5 -10 17 -26 15 -32 -3z"/>
<path d="M586 4043 c-12 -12 -6 -43 9 -43 8 0 15 5 15 11 0 5 -6 7 -12 3 -10
-6 -10 -4 0 8 12 15 2 34 -12 21z"/>
<path d="M3086 4012 c-2 -4 4 -8 14 -8 10 0 16 4 14 8 -3 4 -9 8 -14 8 -5 0
-11 -4 -14 -8z"/>
<path d="M529 3963 c-13 -16 -12 -17 4 -4 9 7 17 15 17 17 0 8 -8 3 -21 -13z"/>
<path d="M2806 3952 c-3 -5 1 -9 9 -9 8 0 12 4 9 9 -3 4 -7 8 -9 8 -2 0 -6 -4
-9 -8z"/>
<path d="M2964 3859 c-10 -17 13 -36 27 -22 12 12 4 33 -11 33 -5 0 -12 -5
-16 -11z"/>
<path d="M2571 3796 c-9 -11 -9 -16 1 -22 7 -4 10 -4 6 1 -4 4 -3 14 3 22 6 7
9 13 6 13 -2 0 -10 -6 -16 -14z"/>
<path d="M2797 3684 c-4 -4 -7 -20 -7 -36 0 -25 4 -29 23 -26 17 2 22 10 22
33 0 29 -22 45 -38 29z m33 -30 c0 -8 -6 -14 -14 -14 -12 0 -14 10 -7 38 3 10
21 -11 21 -24z"/>
<path d="M277 3663 c-4 -3 -7 -17 -7 -30 0 -27 24 -40 43 -24 10 7 17 7 24 0
15 -15 33 -2 33 23 0 15 -5 19 -20 15 -10 -3 -24 1 -31 9 -12 15 -31 18 -42 7z
m32 -17 c9 -10 8 -16 -4 -26 -13 -11 -15 -8 -15 14 0 30 3 32 19 12z m51 -22
c0 -8 -4 -12 -10 -9 -5 3 -10 10 -10 16 0 5 5 9 10 9 6 0 10 -7 10 -16z"/>
<path d="M2853 3654 c-7 -18 11 -39 26 -30 17 11 13 46 -4 46 -9 0 -18 -7 -22
-16z m27 -4 c0 -5 -4 -10 -10 -10 -5 0 -10 5 -10 10 0 6 5 10 10 10 6 0 10 -4
10 -10z"/>
<path d="M2901 3648 c0 -22 1 -22 9 -3 8 20 11 18 14 -7 0 -7 7 -13 15 -13 8
0 16 6 19 13 2 6 -1 12 -8 12 -6 0 -8 5 -5 10 4 6 -5 10 -19 10 -20 0 -26 -5
-25 -22z"/>
<path d="M2964 3654 c3 -9 6 -20 6 -25 0 -5 7 -9 15 -9 10 0 15 9 14 28 l-1
27 -8 -25 c-8 -24 -8 -24 -9 -2 -1 12 -6 22 -12 22 -6 0 -8 -7 -5 -16z"/>
<path d="M3011 3643 c2 -23 2 -24 6 -5 2 12 9 22 14 22 5 0 9 -10 10 -22 1
-22 1 -22 9 2 5 17 8 19 9 8 1 -10 5 -18 10 -18 5 0 8 8 7 18 -2 11 -13 18
-34 20 -29 3 -32 1 -31 -25z"/>
<path d="M381 3623 c2 -24 2 -25 6 -5 5 27 23 29 23 2 0 -22 15 -27 26 -9 3 6
1 15 -6 19 -10 6 -9 9 1 13 8 3 -1 6 -18 6 -30 1 -33 -2 -32 -26z"/>
<path d="M454 3625 c1 -15 8 -20 28 -20 21 -1 25 2 18 15 -6 12 -5 17 6 17 7
0 14 -10 15 -21 1 -18 2 -18 9 4 8 24 8 24 9 3 1 -13 6 -23 12 -23 6 0 9 10 7
23 -2 18 -10 23 -47 25 -36 3 -43 1 -38 -12 3 -8 2 -18 -3 -21 -5 -3 -10 3
-13 12 -3 14 -4 14 -3 -2z"/>
<path d="M2580 3625 c-17 -20 6 -51 25 -35 9 8 15 8 20 0 8 -12 25 -4 25 13 0
7 -4 6 -10 -3 -5 -8 -10 -10 -10 -4 0 5 5 15 11 21 7 7 7 13 1 17 -5 3 -17 -6
-26 -19 -9 -14 -21 -23 -26 -20 -16 10 -12 23 8 27 11 2 13 6 6 11 -7 4 -17 0
-24 -8z"/>
<path d="M2593 3545 c0 -8 4 -12 9 -9 5 3 6 10 3 15 -9 13 -12 11 -12 -6z"/>
<path d="M2626 3552 c-3 -5 1 -9 9 -9 8 0 12 4 9 9 -3 4 -7 8 -9 8 -2 0 -6 -4
-9 -8z"/>
<path d="M906 3452 c-3 -5 1 -9 9 -9 8 0 12 4 9 9 -3 4 -7 8 -9 8 -2 0 -6 -4
-9 -8z"/>
<path d="M791 3163 c1 -21 3 -30 6 -20 2 9 11 17 18 17 20 0 30 21 14 31 -28
18 -39 10 -38 -28z m36 11 c-3 -3 -12 -4 -19 -1 -8 3 -5 6 6 6 11 1 17 -2 13
-5z"/>
<path d="M2397 3194 c-4 -4 -6 -21 -6 -38 1 -17 3 -24 6 -15 2 10 13 19 25 22
11 3 18 12 16 19 -5 15 -30 22 -41 12z m30 -20 c-3 -3 -12 -4 -19 -1 -8 3 -5
6 6 6 11 1 17 -2 13 -5z"/>
<path d="M2493 3165 c0 -22 2 -30 4 -17 2 12 2 30 0 40 -3 9 -5 -1 -4 -23z"/>
<path d="M892 3160 c0 -19 2 -27 5 -17 2 9 2 25 0 35 -3 9 -5 1 -5 -18z"/>
<path d="M858 3171 c11 -7 10 -9 -3 -15 -19 -7 -11 -26 11 -26 8 0 14 10 14
25 0 17 -5 25 -17 25 -14 0 -15 -2 -5 -9z"/>
<path d="M911 3153 l1 -28 8 25 8 25 1 -24 c1 -22 14 -22 17 0 3 22 7 22 14
-1 l8 -25 1 28 c1 24 -3 27 -29 27 -26 0 -30 -3 -29 -27z"/>
<path d="M2458 3171 c11 -7 10 -9 -3 -15 -19 -7 -11 -26 11 -26 8 0 14 10 14
25 0 17 -5 25 -17 25 -14 0 -15 -2 -5 -9z"/>
<path d="M2511 3153 l1 -28 8 25 c8 24 8 24 9 3 1 -13 6 -23 11 -23 6 0 10 10
11 23 1 21 1 21 9 -3 l8 -25 1 28 c1 24 -3 27 -29 27 -26 0 -30 -3 -29 -27z"/>
<path d="M990 3005 c-14 -16 -3 -20 19 -6 8 5 9 11 3 15 -5 3 -15 -1 -22 -9z"/>
<path d="M1079 2999 c-18 -15 -25 -17 -29 -7 -4 11 -11 11 -39 -3 -21 -10 -30
-19 -23 -23 7 -4 17 -4 24 0 17 11 68 13 68 3 0 -5 6 -9 14 -9 10 0 14 10 14
30 -1 17 -2 30 -3 30 -1 0 -13 -9 -26 -21z m21 -19 c0 -5 -2 -10 -4 -10 -3 0
-8 5 -11 10 -3 6 -1 10 4 10 6 0 11 -4 11 -10z"/>
<path d="M730 2803 l0 -168 34 -1 c20 0 52 -12 75 -27 l40 -27 -38 -92 c-21
-51 -51 -126 -66 -166 -15 -40 -28 -72 -29 -70 0 2 1 52 4 111 l5 109 29 -23
c18 -14 27 -17 24 -8 -2 8 -17 20 -31 27 -25 12 -27 18 -27 71 0 32 6 63 13
70 10 12 9 13 -7 7 -10 -3 -25 -1 -32 5 -10 8 -14 8 -14 0 0 -6 5 -11 10 -11
15 0 13 -363 -2 -378 -9 -9 -9 -15 0 -24 7 -7 12 -23 13 -37 0 -23 1 -24 8 -6
5 11 6 24 3 29 -2 4 4 6 14 3 73 -22 111 -28 136 -23 26 5 27 4 18 -13 -5 -11
-32 -43 -59 -72 l-48 -53 -21 40 c-25 48 -52 75 -52 51 0 -25 40 -290 46 -307
3 -8 9 -103 14 -210 7 -161 12 -206 30 -255 20 -54 21 -70 13 -165 -4 -58 -8
-179 -8 -270 1 -158 2 -171 38 -311 21 -81 38 -168 38 -195 0 -27 -1 -79 -1
-115 -1 -82 17 -110 73 -112 32 -1 44 5 77 40 21 23 52 49 68 57 15 8 37 30
47 50 l19 35 -57 54 -56 54 18 74 c11 41 29 107 41 148 56 194 61 359 15 531
-29 107 -32 194 -10 319 61 345 61 839 0 1181 -8 47 -15 91 -15 98 0 7 -22 27
-50 44 -43 27 -48 33 -39 50 6 11 8 23 4 26 -3 3 -8 -4 -12 -16 -3 -12 -7 -22
-9 -22 -2 0 -36 11 -76 24 -40 13 -103 27 -140 31 l-68 7 0 -169z m211 117
l67 -22 -62 -153 c-53 -132 -63 -151 -76 -140 -27 23 -78 45 -105 45 l-25 0 0
151 0 152 68 -6 c37 -3 97 -15 133 -27z m157 -83 c12 -14 48 -258 62 -417 14
-159 13 -497 -1 -506 -15 -9 -141 123 -191 200 l-39 61 28 12 c25 11 25 12 6
13 -21 0 -22 1 -7 36 15 37 20 158 8 209 -3 17 -20 56 -37 87 l-30 58 53 127
c29 71 56 138 61 150 l8 23 35 -21 c19 -11 39 -25 44 -32z m-170 -334 c23 -49
27 -72 27 -143 0 -90 -19 -170 -41 -170 -7 0 -11 6 -8 14 3 7 -2 16 -10 19
-17 7 -30 -8 -21 -23 9 -14 -47 -13 -83 3 -25 10 -29 17 -27 45 2 18 7 38 12
45 5 6 32 69 59 139 27 71 53 128 57 128 4 0 20 -26 35 -57z m146 -537 l89
-90 -17 -149 c-9 -81 -24 -182 -32 -224 -9 -41 -14 -96 -11 -121 6 -59 -39
-333 -63 -390 -29 -66 -82 -78 -129 -28 -22 23 -23 31 -22 184 2 122 -2 177
-15 229 -13 51 -18 116 -19 263 -2 201 -7 250 -31 334 l-14 48 55 61 c30 33
55 65 55 71 0 6 15 -14 32 -44 18 -30 73 -95 122 -144z m-284 69 c24 -55 34
-105 21 -105 -5 0 -12 10 -14 23 -4 19 -4 18 -6 -5 -1 -22 4 -28 19 -28 29 0
29 -65 0 -80 -25 -14 -25 -15 -45 129 -9 62 -19 121 -22 130 -9 29 28 -21 47
-64z m50 -225 c0 -35 -17 -40 -23 -7 -4 19 -4 18 -6 -5 -1 -19 4 -28 14 -28
18 0 20 -16 3 -26 -7 -5 -8 -3 -3 6 5 9 4 11 -4 6 -8 -5 -7 -13 4 -29 11 -16
15 -50 15 -135 0 -63 7 -146 15 -188 9 -41 13 -79 10 -84 -3 -6 -1 -10 4 -10
13 0 14 -123 4 -272 -6 -93 -17 -124 -26 -75 -4 19 -4 18 -6 -5 -1 -19 4 -28
14 -28 9 0 15 -9 14 -22 0 -22 -1 -22 -9 -3 -5 11 -9 17 -9 13 -1 -3 -4 -13
-7 -22 -4 -10 -1 -16 8 -16 12 0 16 -22 21 -97 4 -54 16 -138 27 -187 20 -90
28 -242 11 -232 -4 3 -6 28 -3 55 3 36 -6 90 -34 203 -35 142 -38 163 -38 293
0 77 5 196 10 265 9 117 8 129 -12 185 -17 48 -23 93 -28 220 -4 88 -9 176
-12 196 -5 33 6 48 44 58 1 1 2 -12 2 -29z m305 -640 c14 -67 16 -112 11 -210
-6 -131 -17 -190 -60 -329 -14 -46 -28 -104 -31 -130 -5 -44 -4 -47 30 -72
l35 -27 -41 -36 c-46 -42 -58 -42 -79 0 -39 76 -15 538 30 589 21 23 44 113
62 238 6 48 15 82 19 75 4 -7 15 -51 24 -98z m-168 -247 c30 5 33 4 28 -16
-28 -125 -41 -355 -26 -462 19 -130 49 -153 117 -90 42 40 41 40 60 21 12 -13
11 -19 -11 -45 -14 -16 -41 -39 -59 -50 -18 -11 -38 -31 -44 -45 -12 -26 -58
-42 -92 -31 -37 12 -42 37 -24 147 l17 103 -27 129 c-16 78 -29 181 -33 260
l-6 131 33 -29 c27 -22 41 -27 67 -23z"/>
<path d="M834 2336 c1 -53 -3 -70 -23 -96 -13 -18 -18 -31 -11 -28 36 12 66
138 42 176 -5 7 -8 -16 -8 -52z"/>
<path d="M851 2017 c-8 -10 -7 -14 2 -14 8 0 14 6 14 14 0 7 -1 13 -2 13 -2 0
-8 -6 -14 -13z"/>
<path d="M970 2026 c0 -2 8 -10 18 -17 15 -13 16 -12 3 4 -13 16 -21 21 -21
13z"/>
<path d="M1000 1770 c0 -5 13 -7 32 -3 22 4 29 3 24 -6 -4 -6 -11 -9 -16 -6
-11 7 -41 -5 -36 -14 3 -4 17 -7 32 -6 18 0 29 7 35 23 8 20 6 22 -31 22 -22
0 -40 -4 -40 -10z"/>
<path d="M891 1438 c0 -33 2 -38 9 -23 12 28 12 65 0 65 -5 0 -10 -19 -9 -42z"/>
<path d="M1054 1441 c3 -18 6 -38 6 -43 0 -5 5 -6 10 -3 11 7 3 55 -13 70 -6
7 -8 -1 -3 -24z"/>
<path d="M984 1419 c-3 -6 -2 -15 4 -21 13 -13 32 -2 32 18 0 16 -26 19 -36 3z"/>
<path d="M793 1885 c0 -14 5 -25 12 -25 15 0 14 42 -1 47 -7 2 -11 -7 -11 -22z"/>
<path d="M1040 735 c0 -17 6 -25 17 -25 13 0 14 3 6 11 -6 6 -9 18 -6 25 3 8
0 14 -6 14 -6 0 -11 -11 -11 -25z"/>
<path d="M1080 734 c0 -27 21 -29 28 -3 3 11 2 11 -7 -1 -9 -13 -11 -13 -11 2
0 9 6 19 13 21 7 3 5 6 -5 6 -13 1 -18 -7 -18 -25z"/>
<path d="M1034 382 c23 -26 23 -26 23 -7 0 8 -3 13 -5 10 -3 -3 -12 1 -21 7
-10 8 -9 4 3 -10z"/>
<path d="M907 853 c-4 -3 -2 -12 4 -20 9 -10 8 -13 -2 -13 -11 0 -11 -2 1 -10
22 -14 36 5 19 26 -9 12 -10 15 -1 10 6 -4 12 -2 12 3 0 12 -23 15 -33 4z"/>
<path d="M956 851 c-4 -5 -2 -20 3 -33 9 -21 10 -21 10 10 1 32 -3 39 -13 23z"/>
<path d="M1007 264 c-14 -14 -7 -35 11 -32 9 2 17 10 17 17 0 16 -18 25 -28
15z"/>
<path d="M2496 2954 c-72 -14 -195 -67 -232 -100 -18 -15 -26 -45 -43 -154
-58 -379 -53 -846 13 -1191 15 -80 13 -189 -4 -235 -41 -106 -52 -316 -25
-459 9 -44 29 -122 45 -175 49 -162 50 -157 -15 -219 -30 -30 -55 -58 -55 -64
0 -5 19 -27 43 -49 23 -22 58 -55 78 -74 47 -44 80 -56 118 -43 36 13 43 32
41 102 -2 29 -1 54 0 57 1 3 4 37 5 75 2 39 17 124 34 190 51 200 56 291 30
557 -10 111 -10 120 12 180 18 52 23 95 30 243 4 99 17 232 28 295 16 98 26
167 36 275 1 11 5 28 10 38 4 9 4 25 1 34 -4 10 -8 96 -8 191 -1 140 2 176 13
183 12 7 12 9 -1 9 -13 0 -15 25 -12 175 l4 175 -39 -1 c-21 0 -69 -7 -107
-15z m124 -154 l0 -150 -28 0 c-39 0 -116 -51 -147 -98 -52 -78 -69 -211 -41
-306 13 -41 13 -47 0 -42 -8 3 -14 1 -14 -4 0 -6 3 -10 8 -10 4 0 13 -4 21 -9
11 -7 7 -20 -25 -68 -49 -74 -180 -211 -191 -200 -12 13 -8 455 6 587 7 63 22
166 33 228 l20 113 44 25 c85 50 186 81 272 83 l42 1 0 -150z m0 -171 c0 -5
-4 -7 -10 -4 -5 3 -10 2 -10 -4 0 -5 5 -13 10 -16 6 -3 10 -32 10 -63 0 -54
-2 -58 -33 -72 -17 -8 -42 -31 -55 -50 -20 -30 -23 -45 -20 -97 3 -44 10 -71
26 -92 29 -39 28 -41 -12 -41 -26 0 -33 4 -32 18 0 9 -6 17 -14 17 -8 0 -14
-8 -14 -17 1 -11 -5 -18 -16 -18 -14 0 -22 16 -35 71 -37 150 20 311 129 360
46 21 76 24 76 8z m0 -271 c0 -93 -4 -117 -19 -136 l-18 -24 -26 31 c-52 62
-48 154 10 208 19 18 39 33 44 33 5 0 9 -50 9 -112z m-10 -168 c-10 -6 -11
-10 -2 -10 7 0 12 -13 12 -30 0 -16 -4 -30 -10 -30 -5 0 -19 -19 -31 -41 l-21
-41 -30 28 c-16 16 -44 49 -60 73 l-30 43 38 -6 c24 -4 57 -1 84 8 54 17 70
19 50 6z m-102 -121 l42 -46 -20 -84 c-16 -68 -20 -118 -20 -260 0 -127 -5
-201 -17 -265 -15 -73 -18 -146 -18 -404 0 -297 -2 -320 -24 -409 -24 -96 -25
-179 -5 -322 8 -55 -11 -79 -61 -79 -27 0 -40 7 -62 35 -15 20 -42 44 -60 55
-17 10 -39 30 -49 45 -16 24 -16 27 -1 43 16 15 20 13 56 -22 50 -49 83 -45
103 11 18 52 16 381 -4 485 l-14 77 27 -6 c17 -3 39 2 58 13 31 18 40 34 21
34 -5 0 -10 -4 -10 -9 0 -5 -13 -14 -28 -20 -37 -16 -76 -1 -96 37 -23 45 -57
245 -67 392 -5 74 -13 155 -18 180 -5 25 -17 108 -26 185 l-16 140 93 96 c52
53 105 117 118 143 25 47 25 47 40 24 8 -13 34 -44 58 -69z m93 -81 c-8 -65
-18 -118 -22 -118 -4 0 -5 9 -2 20 6 21 -11 28 -23 8 -4 -7 -3 -8 4 -4 16 9
15 -7 0 -22 -9 -9 -8 -12 5 -12 9 0 17 -7 17 -15 0 -19 -9 -19 -34 0 -18 14
-19 20 -8 77 10 53 69 196 76 186 2 -2 -4 -56 -13 -120z m-48 -162 c18 -14 23
-46 7 -46 -5 0 -10 7 -10 15 0 8 -4 15 -10 15 -5 0 -10 -9 -10 -20 0 -13 7
-20 20 -20 12 0 20 -7 20 -16 0 -14 -3 -14 -15 -4 -18 15 -20 -1 -3 -18 9 -9
8 -12 -6 -12 -9 0 -14 -5 -11 -10 4 -6 11 -7 17 -4 19 12 5 -263 -17 -331 -11
-33 -22 -61 -25 -63 -3 -1 0 -75 7 -165 7 -89 12 -173 10 -187 l-3 -25 -11 25
-12 25 0 -27 c-1 -20 4 -28 15 -28 15 0 16 -10 11 -87 -3 -49 -21 -144 -38
-213 -20 -77 -33 -151 -33 -192 -1 -38 -4 -68 -8 -68 -14 0 -8 133 7 190 17
63 33 179 37 263 2 38 7 57 15 57 7 0 13 10 13 23 0 16 -3 18 -9 8 -5 -7 -11
-9 -14 -5 -7 13 -12 384 -5 419 32 154 38 226 32 368 -4 83 -3 147 2 147 5 0
17 -7 27 -14z m-283 -684 c20 -120 32 -162 56 -192 16 -21 32 -114 45 -260 12
-146 1 -295 -25 -335 -17 -26 -18 -26 -44 -9 -15 10 -34 27 -44 38 -16 20 -16
22 14 49 28 25 30 31 25 75 -3 26 -20 92 -37 147 -44 142 -63 271 -57 385 4
87 36 258 43 235 2 -5 13 -65 24 -133z"/>
<path d="M2535 2560 c-3 -6 2 -13 11 -17 16 -6 16 -7 -2 -14 -13 -5 -6 -7 21
-6 22 1 39 5 38 10 -2 4 -3 14 -3 22 0 8 -5 15 -10 15 -7 0 -7 -6 0 -20 8 -16
8 -20 -3 -20 -18 0 -39 24 -30 33 3 4 1 7 -5 7 -6 0 -14 -5 -17 -10z"/>
<path d="M2484 2018 c-4 -7 -4 -10 1 -6 4 4 15 2 24 -5 14 -11 14 -10 2 6 -16
20 -18 21 -27 5z"/>
<path d="M2225 1881 c-3 -5 -2 -12 3 -15 5 -3 9 1 9 9 0 17 -3 19 -12 6z"/>
<path d="M2328 1782 c-16 -2 -28 -7 -28 -12 0 -5 14 -7 32 -3 22 4 29 3 24 -6
-4 -6 -12 -9 -17 -6 -5 4 -17 1 -26 -4 -10 -6 -16 -11 -13 -11 3 -1 21 -3 40
-6 32 -4 35 -2 35 21 0 28 -8 32 -47 27z"/>
<path d="M2460 1453 c0 -16 4 -35 10 -43 6 -10 9 -2 8 28 0 23 -4 42 -9 42 -5
0 -9 -12 -9 -27z"/>
<path d="M2300 1453 c0 -10 -3 -29 -6 -43 -5 -17 -3 -22 3 -15 16 15 24 63 13
70 -5 3 -10 -2 -10 -12z"/>
<path d="M2352 1413 c4 -21 33 -25 33 -3 0 8 -8 16 -18 18 -14 3 -18 -1 -15
-15z"/>
<path d="M2395 849 c-10 -14 -1 -21 19 -13 9 3 13 10 10 15 -7 12 -21 11 -29
-2z"/>
<path d="M2447 853 c-3 -5 -1 -17 4 -28 7 -17 8 -17 8 8 1 27 -4 34 -12 20z"/>
<path d="M2401 821 c-9 -6 -10 -11 -2 -15 13 -8 31 1 31 15 0 11 -11 11 -29 0z"/>
<path d="M2333 254 c-7 -19 2 -28 22 -21 19 8 19 23 0 31 -9 3 -18 -1 -22 -10z"/>
<path d="M2550 1940 c0 -12 7 -20 16 -20 13 0 14 3 5 13 -6 8 -8 17 -4 20 3 4
1 7 -5 7 -7 0 -12 -9 -12 -20z"/>
<path d="M2271 738 c-1 -23 3 -27 29 -26 17 1 33 5 36 10 10 16 -3 20 -25 8
-18 -9 -23 -8 -31 12 -9 23 -9 23 -9 -4z"/>
<path d="M2310 750 c0 -5 7 -7 15 -4 8 4 15 8 15 10 0 2 -7 4 -15 4 -8 0 -15
-4 -15 -10z"/>
<path d="M2698 2583 c7 -3 16 -2 19 1 4 3 -2 6 -13 5 -11 0 -14 -3 -6 -6z"/>
<path d="M760 2545 c0 -8 6 -15 13 -15 8 0 7 -4 -3 -10 -13 -8 -12 -10 3 -10
19 0 23 15 6 26 -8 4 -7 9 2 15 11 7 10 9 -3 9 -10 0 -18 -7 -18 -15z"/>
<path d="M800 2551 c0 -6 5 -13 11 -17 8 -4 7 -9 -2 -15 -11 -7 -10 -9 4 -9
12 0 17 8 17 25 0 16 -6 25 -15 25 -8 0 -15 -4 -15 -9z"/>
<path d="M2177 1291 c-4 -17 -3 -21 5 -13 5 5 8 16 6 23 -3 8 -7 3 -11 -10z"/>
<path d="M1330 795 c0 -2 6 -8 13 -14 10 -8 14 -7 14 2 0 8 -6 14 -14 14 -7 0
-13 -1 -13 -2z"/>
<path d="M2010 787 c0 -2 6 -10 14 -16 11 -9 16 -9 22 1 4 7 4 10 -1 6 -4 -4
-14 -3 -22 3 -7 6 -13 9 -13 6z"/>
<path d="M1310 765 c0 -2 6 -8 13 -14 10 -8 14 -7 14 2 0 8 -6 14 -14 14 -7 0
-13 -1 -13 -2z"/>
<path d="M1298 733 c-2 -4 -4 -17 -4 -28 1 -29 31 -25 31 4 0 24 -19 40 -27
24z"/>
<path d="M1349 738 c-5 -17 -4 -48 3 -48 4 0 8 11 8 25 0 20 -7 34 -11 23z"/>
<path d="M2015 730 c-3 -6 1 -13 10 -16 13 -6 14 -8 3 -15 -10 -7 -9 -9 5 -9
12 0 17 8 17 25 0 25 -23 35 -35 15z"/>
<path d="M2067 733 c-3 -5 -1 -17 4 -28 7 -17 8 -17 8 8 1 27 -4 34 -12 20z"/>
<path d="M1660 575 c0 -9 6 -12 15 -9 8 4 12 10 9 15 -8 14 -24 10 -24 -6z"/>
<path d="M1701 573 c0 -5 4 -17 9 -28 8 -18 9 -17 9 8 1 15 -3 27 -9 27 -5 0
-10 -3 -9 -7z"/>
<path d="M1680 550 c0 -5 -7 -6 -17 -3 -11 4 -14 3 -9 -5 10 -17 36 -15 36 3
0 8 -2 15 -5 15 -3 0 -5 -4 -5 -10z"/>
<path d="M1610 540 c0 -5 5 -10 11 -10 5 0 7 5 4 10 -3 6 -8 10 -11 10 -2 0
-4 -4 -4 -10z"/>
</g>
</svg>
